 <svg
      width="421"
      height="852"
      viewBox="0 0 421 852"
      fill="none"
      xmlns="http://www.w3.org/2000/svg"
    >
      <path
        fill-rule="evenodd"
        clip-rule="evenodd"
        d="M73 0H348C386.66 0 418 31.3401 418 70V782C418 820.66 386.66 852 348 852H73C34.3401 852 3 820.66 3 782V70C3 31.3401 34.3401 0 73 0ZM348 6H73C37.6538 6 9 34.6538 9 70V782C9 817.346 37.6538 846 73 846H348C383.346 846 412 817.346 412 782V70C412 34.6538 383.346 6 348 6Z"
        fill="white"
      />
      <rect
        x="318"
        width="10"
        height="6"
        fill="white"
        fill-opacity="0.2"
      />
      <rect
        x="93"
        y="846"
        width="10"
        height="6"
        fill="white"
        fill-opacity="0.2"
      />
      <rect
        x="3"
        y="90"
        width="6"
        height="10"
        fill="white"
        fill-opacity="0.2"
      />
      <rect
        x="412"
        y="90"
        width="6"
        height="10"
        fill="white"
        fill-opacity="0.2"
      />
      <rect
        x="3"
        y="752"
        width="6"
        height="10"
        fill="white"
        fill-opacity="0.2"
      />
      <rect
        x="412"
        y="752"
        width="6"
        height="10"
        fill="white"
        fill-opacity="0.2"
      />
      <path
        fill-rule="evenodd"
        clip-rule="evenodd"
        d="M417.971 266H418.981C420.096 266 421 266.895 421 268V364C421 365.105 420.096 366 418.981 366H417.971V266Z"
        fill="white"
      />
      <path
        fill-rule="evenodd"
        clip-rule="evenodd"
        d="M0 302C0 300.895 0.90402 300 2.01918 300H3.02878V363H2.01918C0.90402 363 0 362.105 0 361V302Z"
        fill="white"
      />
      <path
        fill-rule="evenodd"
        clip-rule="evenodd"
        d="M0 223C0 221.895 0.90402 221 2.01918 221H3.02878V284H2.01918C0.90402 284 0 283.105 0 282V223Z"
        fill="white"
      />
      <path
        fill-rule="evenodd"
        clip-rule="evenodd"
        d="M0 162C0 160.895 0.90402 160 2.01918 160H3.02878V193H2.01918C0.90402 193 0 192.105 0 191V162Z"
        fill="white"
      />
      <rect
        x="150"
        y="30"
        width="120"
        height="35"
        rx="17.5"
        fill="white"
      />
      <rect
        x="244"
        y="41"
        width="13"
        height="13"
        rx="6.5"
        fill="white"
        fill-opacity="0.1"
      />
    </svg>